# This file uses centimeters as units for non-parametric coordinates.

mtllib rock_1.mtl
g default
v 1.776994 -0.275731 0.773473
v 3.271673 0.010870 0.077779
v 1.936777 0.584294 -0.484371
v 2.118759 -0.466009 -0.753617
v 2.806887 -0.213935 0.851252
v 2.861794 0.462861 -0.307355
v 1.567302 0.414762 0.093816
v 2.652177 0.397356 0.423638
v 2.927311 -0.317986 -0.510886
v 1.990273 0.157265 -0.935831
v 2.829213 0.173878 -0.629925
v 1.653973 -0.690813 0.019855
v 1.320907 0.007509 -0.536376
v 2.752257 -0.718448 0.112739
v 2.118719 0.481100 0.471255
v 2.253436 -0.247143 1.125355
v 2.162053 -0.703598 0.062824
v 2.492806 -0.397531 -0.641327
v 2.321639 0.164950 -0.860722
v 2.415920 0.583213 -0.402481
vt 0.500000 0.500000
vt 0.833333 0.500000
vt 0.113593 0.769947
vt 0.113593 0.230053
vt 0.666667 0.500000
vt 0.934963 0.691875
vt 0.386407 0.769947
vt 0.750000 0.833333
vt 0.934963 0.308125
vt 0.113593 0.500000
vt 1.000000 0.500000
vt 0.386407 0.230053
vt 0.250000 0.500000
vt 0.750000 0.166667
vt 1.113593 0.769947
vt 1.386407 0.769947
vt 1.113593 0.230053
vt 1.113593 0.500000
vt 1.386407 0.230053
vt 0.554610 0.799270
vt 1.091997 0.799270
vt 0.577102 0.500000
vt 0.554610 0.200730
vt 1.091997 0.200730
vt 1.030957 0.266170
vt 1.061043 0.500000
vt 1.030957 0.733830
vn -0.231428 0.610446 0.757493
vn -0.158161 0.624867 0.764543
vn 0.245175 0.640600 0.727682
vn 0.245175 0.640599 0.727682
vn 0.636604 0.652383 0.411256
vn 0.636604 0.652383 0.411256
vn 0.636604 0.652383 0.411256
vn 0.636604 0.652383 0.411256
vn 0.193767 0.967536 0.162259
vn 0.049715 0.987612 0.148830
vn 0.013516 0.989343 0.144975
vn 0.193767 0.967536 0.162259
vn 0.850973 0.198180 -0.486385
vn 0.850973 0.198180 -0.486385
vn 0.850973 0.198180 -0.486385
vn 0.850973 0.198180 -0.486385
vn 0.367097 -0.197986 -0.908868
vn 0.326197 -0.219453 -0.919476
vn 0.318019 -0.223641 -0.921330
vn 0.367097 -0.197986 -0.908868
vn 0.200230 0.709077 -0.676105
vn 0.220256 0.704340 -0.674828
vn 0.307069 0.679995 -0.665819
vn 0.307069 0.679995 -0.665819
vn -0.946321 -0.094858 0.308995
vn -0.946321 -0.094858 0.308995
vn -0.946321 -0.094858 0.308995
vn -0.946321 -0.094858 0.308995
vn -0.602100 0.680546 -0.417531
vn -0.602100 0.680546 -0.417531
vn -0.602100 0.680546 -0.417531
vn -0.602100 0.680546 -0.417531
vn -0.506668 -0.548573 -0.665098
vn -0.506668 -0.548573 -0.665098
vn -0.506668 -0.548573 -0.665098
vn -0.506667 -0.548574 -0.665098
vn 0.104617 -0.880926 0.461547
vn -0.002777 -0.889013 0.457873
vn -0.016774 -0.889307 0.457002
vn 0.104617 -0.880926 0.461547
vn 0.118921 -0.932443 -0.341186
vn 0.123312 -0.920667 -0.370359
vn 0.131515 -0.895036 -0.426162
vn 0.131515 -0.895036 -0.426162
vn 0.811695 -0.572548 0.115496
vn 0.811695 -0.572548 0.115496
vn 0.811695 -0.572548 0.115496
vn 0.811695 -0.572548 0.115496
vn -0.528671 0.509737 0.678730
vn -0.528671 0.509737 0.678730
vn -0.163290 -0.881807 0.442440
vn -0.163290 -0.881807 0.442440
vn 0.109979 -0.952766 -0.283092
vn 0.109979 -0.952766 -0.283092
vn 0.273580 -0.245819 -0.929907
vn 0.273580 -0.245818 -0.929907
vn 0.125496 0.723961 -0.678330
vn 0.125496 0.723961 -0.678330
vn -0.119881 0.984356 0.129121
vn -0.119881 0.984356 0.129121
s 1
g rock_1
usemtl initialShadingGroup
f 15/20/1 16/22/2 5/5/3 8/8/4
s off
f 5/5/5 2/2/6 6/6/7 8/8/8
s 2
f 6/6/9 20/27/10 15/21/11 8/8/12
s off
f 6/6/13 2/2/14 9/9/15 11/11/16
s 3
f 9/9/17 18/25/18 19/26/19 11/11/20
s 4
f 19/26/21 20/27/22 6/6/23 11/11/24
s off
f 12/12/25 1/1/26 7/7/27 13/13/28
f 7/7/29 3/3/30 10/10/31 13/13/32
f 10/10/33 4/4/34 12/12/35 13/13/36
s 5
f 5/5/37 16/22/38 17/23/39 14/14/40
s 6
f 17/24/41 18/25/42 9/9/43 14/14/44
s off
f 9/9/45 2/2/46 5/5/47 14/14/48
s 1
f 7/7/49 1/1/50 16/22/2 15/20/1
s 5
f 17/23/39 16/22/38 1/1/51 12/12/52
s 6
f 12/19/53 4/17/54 18/25/42 17/24/41
s 3
f 19/26/19 18/25/18 4/17/55 10/18/56
s 4
f 10/18/57 3/15/58 20/27/22 19/26/21
s 2
f 15/21/11 20/27/10 3/15/59 7/16/60
